<svg width="76" height="69" viewBox="0 0 76 69" fill="none" xmlns="http://www.w3.org/2000/svg">
<path d="M32 63.3698C32 64.8064 32.6321 66.1842 33.7574 67.2C34.8826 68.2159 36.4087 68.7866 38 68.7866C39.5913 68.7866 41.1174 68.2159 42.2426 67.2C43.3679 66.1842 44 64.8064 44 63.3698V39.8974H70C71.5913 39.8974 73.1174 39.3267 74.2426 38.3109C75.3679 37.295 76 35.9173 76 34.4807C76 33.0441 75.3679 31.6663 74.2426 30.6505C73.1174 29.6346 71.5913 29.064 70 29.064H44V5.59152C44 4.15492 43.3679 2.77716 42.2426 1.76132C41.1174 0.745493 39.5913 0.174805 38 0.174805C36.4087 0.174805 34.8826 0.745493 33.7574 1.76132C32.6321 2.77716 32 4.15492 32 5.59152V29.064H6C4.4087 29.064 2.88258 29.6346 1.75736 30.6505C0.632141 31.6663 0 33.0441 0 34.4807C0 35.9173 0.632141 37.295 1.75736 38.3109C2.88258 39.3267 4.4087 39.8974 6 39.8974H32V63.3698Z" fill="#31363F"/>
</svg>
