<svg width="80" height="79" viewBox="0 0 80 79" fill="none" xmlns="http://www.w3.org/2000/svg">
<path d="M5.13399 44.679L62.4806 44.679L37.4267 70.0848C35.4245 72.1152 35.4245 75.4471 37.4267 77.4775C37.9017 77.9601 38.4659 78.343 39.0869 78.6043C39.708 78.8655 40.3738 79 41.0462 79C41.7186 79 42.3844 78.8655 43.0054 78.6043C43.6265 78.343 44.1907 77.9601 44.6656 77.4775L78.4986 43.1692C78.9745 42.6876 79.3521 42.1155 79.6098 41.4857C79.8674 40.8559 80 40.1807 80 39.4989C80 38.8171 79.8674 38.1419 79.6098 37.5121C79.3521 36.8823 78.9745 36.3102 78.4986 35.8286L44.6656 1.52029C44.1903 1.03829 43.6261 0.65596 43.005 0.395111C42.384 0.134262 41.7184 0 41.0462 0C40.374 0 39.7084 0.134262 39.0874 0.395111C38.4663 0.65596 37.9021 1.03829 37.4267 1.52029C36.9514 2.00228 36.5744 2.57449 36.3171 3.20425C36.0599 3.834 35.9275 4.50896 35.9275 5.19061C35.9275 5.87225 36.0599 6.5472 36.3171 7.17696C36.5744 7.80671 36.9514 8.37892 37.4267 8.86092L62.4806 34.2668L5.13399 34.2668C2.3103 34.2668 0 36.6095 0 39.4729C0 42.3362 2.3103 44.679 5.13399 44.679Z" fill="#76ABAE"/>
</svg>
