<svg width="103" height="80" viewBox="0 0 103 80" fill="none" xmlns="http://www.w3.org/2000/svg">
<path d="M51.5439 42.6648C60.2279 42.6648 68.0958 45.546 73.868 49.575C79.3529 53.4088 83.9985 59.1061 83.9985 65.2356C83.9985 68.6001 82.5659 71.3883 80.308 73.4609C78.1845 75.4173 75.4119 76.686 72.5559 77.5503C66.8486 79.2837 59.333 79.8413 51.5439 79.8413C43.7549 79.8413 36.2393 79.2837 30.5319 77.5503C27.6759 76.686 24.9034 75.4173 22.7753 73.4609C20.5267 71.393 19.0894 68.6047 19.0894 65.2402C19.0894 59.1108 23.735 53.4135 29.2199 49.5797C34.9921 45.546 42.86 42.6648 51.5439 42.6648ZM83.9985 47.3119C88.8389 47.3119 93.2341 48.9151 96.4842 51.1829C99.4515 53.2601 102.544 56.7129 102.544 60.9231C102.544 63.3257 101.501 65.3192 99.9476 66.7459C98.5289 68.0517 96.7763 68.8185 95.1768 69.3018C92.9977 69.9617 90.4245 70.3009 87.754 70.4496C88.3196 68.8464 88.6349 67.1037 88.6349 65.2356C88.6349 58.1024 84.1886 52.0426 79.2138 47.837C80.785 47.4891 82.3893 47.313 83.9985 47.3119ZM19.0894 47.3119C20.7492 47.3181 22.3441 47.4931 23.8741 47.837C18.9039 52.0426 14.453 58.1024 14.453 65.2356C14.453 67.1037 14.7683 68.8464 15.3339 70.4496C12.6634 70.3009 10.0949 69.9617 7.91113 69.3018C6.31158 68.8185 4.55904 68.0517 3.13567 66.7459C2.3198 66.0133 1.66726 65.1164 1.22067 64.1139C0.774086 63.1114 0.543492 62.0257 0.543946 60.9278C0.543946 56.7222 3.63176 53.2648 6.60367 51.1875C10.2797 48.6616 14.6325 47.3105 19.0894 47.3119ZM81.6803 19.4295C84.7544 19.4295 87.7026 20.6535 89.8763 22.8323C92.05 25.011 93.2712 27.966 93.2712 31.0472C93.2712 34.1284 92.05 37.0834 89.8763 39.2621C87.7026 41.4408 84.7544 42.6648 81.6803 42.6648C78.6062 42.6648 75.658 41.4408 73.4843 39.2621C71.3106 37.0834 70.0894 34.1284 70.0894 31.0472C70.0894 27.966 71.3106 25.011 73.4843 22.8323C75.658 20.6535 78.6062 19.4295 81.6803 19.4295ZM21.4076 19.4295C24.4817 19.4295 27.4299 20.6535 29.6036 22.8323C31.7773 25.011 32.9985 27.966 32.9985 31.0472C32.9985 34.1284 31.7773 37.0834 29.6036 39.2621C27.4299 41.4408 24.4817 42.6648 21.4076 42.6648C18.3335 42.6648 15.3853 41.4408 13.2116 39.2621C11.0379 37.0834 9.81667 34.1284 9.81667 31.0472C9.81667 27.966 11.0379 25.011 13.2116 22.8323C15.3853 20.6535 18.3335 19.4295 21.4076 19.4295ZM51.5439 0.841309C56.4625 0.841309 61.1796 2.79971 64.6576 6.28568C68.1355 9.77165 70.0894 14.4996 70.0894 19.4295C70.0894 24.3594 68.1355 29.0874 64.6576 32.5734C61.1796 36.0594 56.4625 38.0178 51.5439 38.0178C46.6254 38.0178 41.9083 36.0594 38.4303 32.5734C34.9524 29.0874 32.9985 24.3594 32.9985 19.4295C32.9985 14.4996 34.9524 9.77165 38.4303 6.28568C41.9083 2.79971 46.6254 0.841309 51.5439 0.841309Z" fill="#EEEEEE"/>
</svg>
