<svg width="52" height="42" viewBox="0 0 52 42" fill="none" xmlns="http://www.w3.org/2000/svg">
<path d="M4.4897 3.6828L14.775 12.6004L23.9385 1.4827C24.1951 1.17189 24.5195 0.92213 24.8877 0.752012C25.2558 0.581894 25.6581 0.495805 26.0647 0.500157C26.4713 0.504509 26.8717 0.59919 27.236 0.777148C27.6003 0.955106 27.9191 1.21176 28.1688 1.52798L36.9133 12.5977L47.5311 3.55229C47.948 3.1978 48.4649 2.97725 49.0126 2.92018C49.5603 2.8631 50.1125 2.97222 50.5955 3.23292C51.0785 3.49363 51.4692 3.89348 51.7152 4.37896C51.9613 4.86445 52.0509 5.4124 51.9723 5.94949L47.9176 33.5093H4.14641L0.0295963 6.07468C-0.0521799 5.5346 0.0364749 4.98281 0.283553 4.49404C0.530631 4.00527 0.924193 3.60313 1.41093 3.3421C1.89767 3.08107 2.45407 2.97376 3.00477 3.0347C3.55546 3.09564 4.07385 3.32189 4.4897 3.6828ZM4.35725 36.1729H47.6068V38.8364C47.6068 39.5429 47.322 40.2203 46.8151 40.7199C46.3081 41.2194 45.6206 41.5 44.9037 41.5H7.06035C6.34344 41.5 5.6559 41.2194 5.14897 40.7199C4.64204 40.2203 4.35725 39.5429 4.35725 38.8364V36.1729Z" fill="#76ABAE"/>
</svg>
