<svg width="101" height="101" viewBox="0 0 101 101" fill="none" xmlns="http://www.w3.org/2000/svg">
<circle cx="50.6362" cy="49.5336" r="48.1283" fill="#76ABAE"/>
<path d="M50.6369 26.0049C47.5697 26.0049 44.5714 26.9144 42.0211 28.6185C39.4709 30.3225 37.4832 32.7445 36.3094 35.5782C35.1356 38.412 34.8285 41.5301 35.4269 44.5384C36.0253 47.5466 37.5023 50.3099 39.6711 52.4787C41.8399 54.6476 44.6032 56.1246 47.6115 56.7229C50.6197 57.3213 53.7379 57.0142 56.5716 55.8404C59.4053 54.6667 61.8273 52.679 63.5314 50.1287C65.2354 47.5784 66.1449 44.5801 66.1449 41.5129C66.1449 37.3999 64.5111 33.4554 61.6028 30.5471C58.6944 27.6388 54.7499 26.0049 50.6369 26.0049Z" fill="#31363F"/>
<path d="M50.9043 0.335938C41.0152 0.335937 31.3483 3.26839 23.1258 8.76246C14.9033 14.2565 8.49472 22.0655 4.71034 31.2018C0.925961 40.3381 -0.0642056 50.3914 1.86506 60.0904C3.79432 69.7895 8.55635 78.6986 15.549 85.6913C22.5416 92.6839 31.4508 97.4459 41.1498 99.3752C50.8488 101.304 60.9022 100.314 70.0385 96.5299C79.1748 92.7455 86.9837 86.3369 92.4778 78.1144C97.9719 69.892 100.904 60.225 100.904 50.3359C100.889 37.0798 95.6165 24.3708 86.2429 14.9973C76.8694 5.62376 64.1605 0.351062 50.9043 0.335938ZM79.4507 82.2145C79.3814 77.5288 77.4729 73.0581 74.1369 69.7669C70.8009 66.4756 66.3048 64.6277 61.6186 64.6216H40.19C35.5044 64.6286 31.0093 66.477 27.674 69.7681C24.3388 73.0592 22.4308 77.5294 22.3615 82.2145C15.8849 76.4315 11.3176 68.8176 9.26444 60.3812C7.21124 51.9447 7.76896 43.0836 10.8637 34.9711C13.9585 26.8587 19.4444 19.8776 26.5949 14.9522C33.7455 10.0269 42.2234 7.3896 50.9061 7.3896C59.5888 7.3896 68.0667 10.0269 75.2173 14.9522C82.3678 19.8776 87.8537 26.8587 90.9485 34.9711C94.0432 43.0836 94.601 51.9447 92.5478 60.3812C90.4946 68.8176 85.9273 76.4315 79.4507 82.2145Z" fill="#31363F"/>
</svg>
