<svg width="82" height="84" viewBox="0 0 82 84" fill="none" xmlns="http://www.w3.org/2000/svg">
<g filter="url(#filter0_d_372_1404)">
<ellipse cx="41" cy="38" rx="37" ry="38" fill="#EEEEEE"/>
</g>
<path fill-rule="evenodd" clip-rule="evenodd" d="M44.3333 23C46.1743 23 47.6667 24.4924 47.6667 26.3333V29.6667H52.6667C54.5076 29.6667 56 31.1591 56 33V48C56 49.8409 54.5076 51.3333 52.6667 51.3333H29.3333C27.4924 51.3333 26 49.8409 26 48V33C26 31.1591 27.4924 29.6667 29.3333 29.6667H34.3333V26.3333C34.3333 24.4924 35.8257 23 37.6667 23H44.3333ZM52.6667 33H29.3333V48H52.6667V33ZM44.3333 26.3333H37.6667V29.6667H44.3333V26.3333Z" fill="#4BA644"/>
<defs>
<filter id="filter0_d_372_1404" x="0" y="0" width="82" height="84" filterUnits="userSpaceOnUse" color-interpolation-filters="sRGB">
<feFlood flood-opacity="0" result="BackgroundImageFix"/>
<feColorMatrix in="SourceAlpha" type="matrix" values="0 0 0 0 0 0 0 0 0 0 0 0 0 0 0 0 0 0 127 0" result="hardAlpha"/>
<feOffset dy="4"/>
<feGaussianBlur stdDeviation="2"/>
<feComposite in2="hardAlpha" operator="out"/>
<feColorMatrix type="matrix" values="0 0 0 0 0 0 0 0 0 0 0 0 0 0 0 0 0 0 0.25 0"/>
<feBlend mode="normal" in2="BackgroundImageFix" result="effect1_dropShadow_372_1404"/>
<feBlend mode="normal" in="SourceGraphic" in2="effect1_dropShadow_372_1404" result="shape"/>
</filter>
</defs>
</svg>
