<svg width="74" height="76" viewBox="0 0 74 76" fill="none" xmlns="http://www.w3.org/2000/svg">
<ellipse cx="37" cy="38" rx="37" ry="38" fill="#EBFDE7"/>
<path fill-rule="evenodd" clip-rule="evenodd" d="M36.9999 37.9999C42.7282 37.9999 47.3923 42.6791 47.5663 48.5189L47.5713 48.8571V50.2142H26.4285V48.8571C26.4285 42.8608 31.1615 37.9999 36.9999 37.9999ZM36.9999 40.7142C33.2265 40.7142 30.0687 43.4215 29.2677 47.048L29.2048 47.361L29.1823 47.4999H44.8161L44.7949 47.361C44.1481 43.7838 41.2244 41.028 37.6261 40.7392L37.2971 40.7198L36.9999 40.7142ZM36.9999 25.7856C39.9191 25.7856 42.2856 28.2161 42.2856 31.2142C42.2856 34.2123 39.9191 36.6428 36.9999 36.6428C34.0807 36.6428 31.7142 34.2123 31.7142 31.2142C31.7142 28.2161 34.0807 25.7856 36.9999 25.7856ZM36.9999 28.4999C35.5403 28.4999 34.357 29.7152 34.357 31.2142C34.357 32.7133 35.5403 33.9285 36.9999 33.9285C38.4595 33.9285 39.6428 32.7133 39.6428 31.2142C39.6428 29.7152 38.4595 28.4999 36.9999 28.4999Z" fill="#4BA644"/>
</svg>
