<svg width="74" height="76" viewBox="0 0 74 76" fill="none" xmlns="http://www.w3.org/2000/svg">
<ellipse cx="37" cy="38" rx="37" ry="38" fill="#EEEEEE"/>
<path fill-rule="evenodd" clip-rule="evenodd" d="M40.3333 23C42.1743 23 43.6667 24.4924 43.6667 26.3333V29.6667H48.6667C50.5076 29.6667 52 31.1591 52 33V48C52 49.8409 50.5076 51.3333 48.6667 51.3333H25.3333C23.4924 51.3333 22 49.8409 22 48V33C22 31.1591 23.4924 29.6667 25.3333 29.6667H30.3333V26.3333C30.3333 24.4924 31.8257 23 33.6667 23H40.3333ZM48.6667 33H25.3333V48H48.6667V33ZM40.3333 26.3333H33.6667V29.6667H40.3333V26.3333Z" fill="#007AFF"/>
</svg>
