<svg width="84" height="61" viewBox="0 0 84 61" fill="none" xmlns="http://www.w3.org/2000/svg">
<path d="M3.97097 60.3408C2.90203 60.3408 2.00664 59.9808 1.28479 59.2608C0.560424 58.5433 0.198242 57.6533 0.198242 56.5908V49.8408C0.198242 47.7158 0.74906 45.7621 1.8507 43.9796C2.94982 42.1996 4.41112 40.8408 6.23461 39.9033C10.1331 37.9658 14.0945 36.5121 18.1187 35.5421C22.1429 34.5746 26.2301 34.0908 30.3801 34.0908C34.5301 34.0908 38.6172 34.5746 42.6414 35.5421C46.6657 36.5121 50.627 37.9658 54.5255 39.9033C56.349 40.8408 57.8103 42.1996 58.9094 43.9796C60.0111 45.7621 60.5619 47.7158 60.5619 49.8408V56.5908C60.5619 57.6533 60.1997 58.5433 59.4753 59.2608C58.7535 59.9808 57.8581 60.3408 56.7892 60.3408H3.97097ZM66.3153 60.3408C66.8812 59.9033 67.3214 59.3558 67.6357 58.6983C67.9501 58.0433 68.1073 57.3096 68.1073 56.4971V49.0908C68.1073 46.3408 67.3377 43.6996 65.7984 41.1671C64.2566 38.6371 62.071 36.4658 59.2414 34.6533C62.4482 35.0283 65.4664 35.6683 68.296 36.5733C71.1255 37.4808 73.7664 38.5908 76.2187 39.9033C78.4823 41.1533 80.2115 42.5433 81.4062 44.0733C82.6009 45.6058 83.1982 47.2783 83.1982 49.0908V56.5908C83.1982 57.6533 82.8361 58.5433 82.1117 59.2608C81.3898 59.9808 80.4945 60.3408 79.4255 60.3408H66.3153ZM30.3801 30.3408C26.2301 30.3408 22.6774 28.8721 19.7221 25.9346C16.7668 22.9971 15.2892 19.4658 15.2892 15.3408C15.2892 11.2158 16.7668 7.68457 19.7221 4.74707C22.6774 1.80957 26.2301 0.34082 30.3801 0.34082C34.5301 0.34082 38.0827 1.80957 41.038 4.74707C43.9933 7.68457 45.471 11.2158 45.471 15.3408C45.471 19.4658 43.9933 22.9971 41.038 25.9346C38.0827 28.8721 34.5301 30.3408 30.3801 30.3408ZM68.1073 15.3408C68.1073 19.4658 66.6297 22.9971 63.6744 25.9346C60.7191 28.8721 57.1664 30.3408 53.0164 30.3408C52.3248 30.3408 51.4445 30.2633 50.3755 30.1083C49.3066 29.9508 48.4263 29.7783 47.7346 29.5908C49.4323 27.5908 50.7364 25.3721 51.6469 22.9346C52.5599 20.4971 53.0164 17.9658 53.0164 15.3408C53.0164 12.7158 52.5599 10.1846 51.6469 7.74707C50.7364 5.30957 49.4323 3.09082 47.7346 1.09082C48.6149 0.77832 49.4952 0.574571 50.3755 0.479571C51.2558 0.387071 52.1361 0.34082 53.0164 0.34082C57.1664 0.34082 60.7191 1.80957 63.6744 4.74707C66.6297 7.68457 68.1073 11.2158 68.1073 15.3408Z" fill="#EEEEEE"/>
</svg>
