<svg width="74" height="76" viewBox="0 0 74 76" fill="none" xmlns="http://www.w3.org/2000/svg">
<ellipse cx="37" cy="38" rx="37" ry="38" fill="#FDE7EA"/>
<path fill-rule="evenodd" clip-rule="evenodd" d="M37 37.9999C42.7283 37.9999 47.3924 42.6791 47.5664 48.5189L47.5714 48.8571V50.2142H26.4286V48.8571C26.4286 42.8608 31.1616 37.9999 37 37.9999ZM37 40.7142C33.2266 40.7142 30.0689 43.4215 29.2678 47.048L29.205 47.361L29.1824 47.4999H44.8163L44.7951 47.361C44.1483 43.7838 41.2245 41.028 37.6262 40.7392L37.2973 40.7198L37 40.7142ZM37 25.7856C39.9192 25.7856 42.2857 28.2161 42.2857 31.2142C42.2857 34.2123 39.9192 36.6428 37 36.6428C34.0808 36.6428 31.7143 34.2123 31.7143 31.2142C31.7143 28.2161 34.0808 25.7856 37 25.7856ZM37 28.4999C35.5404 28.4999 34.3572 29.7152 34.3572 31.2142C34.3572 32.7133 35.5404 33.9285 37 33.9285C38.4596 33.9285 39.6429 32.7133 39.6429 31.2142C39.6429 29.7152 38.4596 28.4999 37 28.4999Z" fill="#F12B43"/>
</svg>
