<svg width="52" height="52" viewBox="0 0 52 52" fill="none" xmlns="http://www.w3.org/2000/svg">
<path d="M23.8484 45.5003H20.8108C13.0433 45.5003 9.16059 45.5003 6.74692 43.0412C4.33325 40.582 4.33325 36.6235 4.33325 28.7087C4.33325 20.7938 4.33325 16.8353 6.74692 14.3762C9.16059 11.917 13.0433 11.917 20.8108 11.917H29.0506C36.8181 11.917 40.7029 11.917 43.1166 14.3762C44.9734 16.2677 45.4003 19.0475 45.4999 23.8337" stroke="#76ABAE" stroke-width="1.5" stroke-linecap="round" stroke-linejoin="round"/>
<path d="M43.37 43.3833L47.6665 47.6668M34.6665 11.9168L34.4498 11.2452C33.3773 7.9085 32.8422 6.24016 31.566 5.28683C30.2877 4.3335 28.5933 4.3335 25.1982 4.3335H24.6283C21.2375 4.3335 19.541 4.3335 18.2648 5.28683C16.9865 6.24016 16.4513 7.9085 15.3788 11.2452L15.1665 11.9168M45.6147 37.9732C45.6318 36.9589 45.4467 35.9515 45.0704 35.0095C44.6941 34.0675 44.134 33.2099 43.4228 32.4866C42.7116 31.7633 41.8635 31.1889 40.928 30.7967C39.9925 30.4046 38.9883 30.2027 37.9739 30.2027C36.9596 30.2027 35.9553 30.4046 35.0198 30.7967C34.0843 31.1889 33.2362 31.7633 32.525 32.4866C31.8138 33.2099 31.2537 34.0675 30.8774 35.0095C30.5011 35.9515 30.3161 36.9589 30.3332 37.9732C30.3669 39.9773 31.1868 41.888 32.616 43.2934C34.0453 44.6988 35.9695 45.4863 37.9739 45.4863C39.9784 45.4863 41.9026 44.6988 43.3318 43.2934C44.7611 41.888 45.5809 39.9773 45.6147 37.9732Z" stroke="#76ABAE" stroke-width="1.5" stroke-linecap="round" stroke-linejoin="round"/>
</svg>
