<svg width="140" height="140" viewBox="0 0 140 140" fill="none" xmlns="http://www.w3.org/2000/svg">
<rect x="57" y="28" width="28" height="14" fill="#31363F"/>
<rect x="28" y="51" width="90" height="55" fill="#31363F"/>
<path fill-rule="evenodd" clip-rule="evenodd" d="M81.6667 17.5C88.11 17.5 93.3333 22.7233 93.3333 29.1667V40.8333H110.833C117.277 40.8333 122.5 46.0567 122.5 52.5V105C122.5 111.443 117.277 116.667 110.833 116.667H29.1667C22.7233 116.667 17.5 111.443 17.5 105V52.5C17.5 46.0567 22.7233 40.8333 29.1667 40.8333H46.6667V29.1667C46.6667 22.7233 51.89 17.5 58.3333 17.5H81.6667ZM110.833 52.5H29.1667V105H110.833V52.5ZM81.6667 29.1667H58.3333V40.8333H81.6667V29.1667Z" fill="#76ABAE"/>
</svg>
